<?xml version="1.0" encoding="UTF-8" standalone="no"?>
<!-- Generator: Adobe Illustrator 24.0.2, SVG Export Plug-In . SVG Version: 6.00 Build 0)  -->

<svg
   version="1.1"
   id="Ebene_1"
   x="0px"
   y="0px"
   viewBox="0 0 307.47888 149.507"
   xml:space="preserve"
   sodipodi:docname="SCC-Logo-notext.svg"
   inkscape:export-filename="SCC-Logo-notext.pdf"
   inkscape:export-xdpi="96"
   inkscape:export-ydpi="96"
   width="307.47888"
   height="149.507"
   inkscape:version="1.3.2 (091e20ef0f, 2023-11-25)"
   xmlns:inkscape="http://www.inkscape.org/namespaces/inkscape"
   xmlns:sodipodi="http://sodipodi.sourceforge.net/DTD/sodipodi-0.dtd"
   xmlns="http://www.w3.org/2000/svg"
   xmlns:svg="http://www.w3.org/2000/svg"><defs
   id="defs8" /><sodipodi:namedview
   id="namedview8"
   pagecolor="#ffffff"
   bordercolor="#000000"
   borderopacity="0.25"
   inkscape:showpageshadow="2"
   inkscape:pageopacity="0.0"
   inkscape:pagecheckerboard="0"
   inkscape:deskcolor="#d1d1d1"
   inkscape:zoom="1.0295884"
   inkscape:cx="269.03954"
   inkscape:cy="142.7755"
   inkscape:window-width="1920"
   inkscape:window-height="1019"
   inkscape:window-x="0"
   inkscape:window-y="30"
   inkscape:window-maximized="1"
   inkscape:current-layer="Ebene_1" />
<style
   type="text/css"
   id="style1">
	.st0{fill:#00957E;}
</style>
<g
   id="XMLID_1_"
   transform="translate(-18.528148,-46.86)">
	<g
   id="g5">
		<path
   d="m 325.1,94.21 c 0.75,0.32 1.11,1.2 0.79,1.95 -0.1,0.21 -6.47,15.1 -15.34,33.7 l -2.68,-1.28 c 3.08,-6.45 5.85,-12.46 8.16,-17.55 -5.7,7.73 -14.16,17.86 -25.58,28.17 -0.65,1.31 -2.53,5.08 -5.13,10.04 l -2.64,-1.41 c 0.66,-1.25 1.27,-2.42 1.82,-3.5 -2.35,1.95 -4.86,3.93 -7.52,5.91 l -1.77,-2.38 c 3.01,-2.25 5.83,-4.5 8.44,-6.7 1.51,-1.28 2.97,-2.54 4.38,-3.81 0.18,-0.34 0.46,-0.58 0.78,-0.7 22.9,-20.77 33.52,-40.64 33.64,-40.85 0.14,-0.28 0.36,-0.49 0.62,-0.62 0.03,-0.1 0.06,-0.18 0.07,-0.19 0.33,-0.75 1.2,-1.11 1.96,-0.78 z"
   id="path1" />
		<path
   d="m 307.87,128.58 2.68,1.28 c -2.31,4.86 -4.8,9.98 -7.39,15.16 l -2.67,-1.33 c -3.99,3.03 -10.54,7.74 -19.18,13.03 -1.35,2.45 -2.78,5.02 -4.25,7.59 -1.3,2.25 -2.66,4.51 -4.05,6.72 l -2.53,-1.57 c 1.36,-2.18 2.7,-4.42 3.98,-6.63 0.6,-1.04 1.18,-2.06 1.75,-3.08 -4.96,2.87 -10.48,5.85 -16.49,8.75 -2.86,3.83 -5.91,7.87 -8.33,10.92 l -2.33,-1.86 c 1.46,-1.84 3.15,-4.05 4.9,-6.36 -0.67,0.31 -1.35,0.61 -2.04,0.91 l -1.21,-2.71 c 2.41,-1.07 4.76,-2.16 7.03,-3.25 1.6,-2.12 3.1,-4.15 4.37,-5.89 -1.42,0.87 -2.88,1.73 -4.36,2.57 l -1.46,-2.58 c 7.01,-4.01 13.31,-8.21 18.92,-12.39 l 1.77,2.38 c -2.64,1.97 -5.43,3.95 -8.37,5.9 -0.03,0.24 -0.12,0.47 -0.27,0.68 -0.04,0.06 -1.99,2.74 -4.69,6.41 5.66,-2.91 10.83,-5.84 15.42,-8.63 1.3,-2.41 2.52,-4.7 3.61,-6.77 l 2.64,1.41 c -0.37,0.7 -0.76,1.44 -1.16,2.19 11.8,-7.56 18.61,-13.36 18.82,-13.53 0.16,-0.14 0.33,-0.24 0.52,-0.3 1.51,-3.08 2.97,-6.1 4.37,-9.02 z"
   id="path2" />
		<path
   d="m 300.49,143.69 2.67,1.33 c -0.94,1.87 -1.89,3.75 -2.85,5.63 -7.09,13.84 -12.47,22.08 -25.02,38.37 -0.02,0.02 -0.04,0.04 -0.05,0.05 -0.03,0.04 -0.08,0.08 -0.11,0.12 -0.03,0.03 -0.07,0.06 -0.11,0.09 -0.04,0.03 -0.08,0.06 -0.11,0.08 -0.05,0.03 -0.09,0.06 -0.13,0.08 -0.05,0.01 -0.09,0.03 -0.13,0.06 -0.05,0.01 -0.1,0.03 -0.15,0.04 -0.03,0.01 -0.05,0.02 -0.05,0.03 -55.16,12.69 -93,4.38 -109.17,0.83 l -4.66,-0.96 c -6.28,-0.44 -12.4,-1.09 -18.32,-1.92 -13.22,-0.58 -25.28,-1.64 -36.21,-3.03 l 0.36,-2.94 c 3.08,0.39 6.26,0.75 9.52,1.08 0.03,-0.03 0.04,-0.06 0.08,-0.09 -2.57,-0.62 -5.09,-1.26 -7.55,-1.93 l 0.76,-2.87 c 3.06,0.82 6.2,1.61 9.42,2.36 0.24,-0.18 0.5,-0.38 0.76,-0.57 -0.43,-0.17 -0.85,-0.33 -1.28,-0.52 l 1.1,-2.74 c 1.05,0.42 2.11,0.83 3.17,1.23 0.86,-0.51 1.93,-0.97 2.95,-1.36 -2.86,-1.53 -5.69,-3.14 -8.44,-4.75 -0.91,0.05 -3.56,0.27 -6.94,0.92 l -0.56,-2.92 c 1.19,-0.24 2.29,-0.42 3.27,-0.56 -3.87,-2.38 -7.55,-4.79 -10.97,-7.09 -0.45,0.06 -3.85,0.46 -8.99,1.29 l -0.48,-2.93 c 2.32,-0.38 4.28,-0.68 5.79,-0.89 -9.07,-6.3 -15.58,-11.49 -17.45,-12.99 l -7.62,0.8 -0.3,-2.97 8.23,-0.87 c 0.39,-0.04 0.79,0.07 1.1,0.33 0.43,0.35 40.23,32.76 72.01,41.4 0.78,0.02 1.57,0.04 2.36,0.05 42.31,0.71 75.43,-10.76 99.9,-24.71 l 1.46,2.58 c -3.81,2.18 -7.82,4.3 -12.06,6.32 -0.05,0.27 -0.15,0.54 -0.36,0.76 -0.03,0.03 -1.17,1.21 -2.97,2.98 2.86,-1.13 5.64,-2.3 8.35,-3.49 l 1.21,2.71 c -4.79,2.12 -9.86,4.16 -15.15,6.07 -2.29,2.08 -4.82,4.29 -7.35,6.3 5.97,-0.86 11.45,-1.86 16.45,-2.96 1.03,-1.26 2.1,-2.58 3.19,-3.96 l 2.33,1.86 c -0.27,0.33 -0.53,0.67 -0.8,1.01 6.08,-1.49 11.35,-3.09 15.86,-4.66 1.31,-2.01 2.68,-4.13 4.03,-6.31 l 2.53,1.57 c -0.62,1.02 -1.26,2.04 -1.9,3.03 11.01,-4.27 16.23,-7.95 16.37,-8.05 0.27,-0.19 0.56,-0.28 0.87,-0.28 3.3,-5.19 6.13,-10.25 9.3,-16.44 0.95,-1.87 1.9,-3.74 2.84,-5.6 z m -27.23,43.08 c 4.66,-6.07 8.32,-11.01 11.45,-15.55 -3.44,1.9 -8.86,4.54 -16.47,7.26 -3.08,4.68 -5.82,8.59 -7.41,10.83 4.04,-0.73 8.17,-1.57 12.43,-2.54 z m -16.29,2.79 c 0.05,-0.08 2.88,-3.95 6.64,-9.51 -4.71,1.51 -10.13,3.01 -16.27,4.37 -2.66,3.22 -5.01,5.94 -6.59,7.73 5.12,-0.52 10.45,-1.23 16,-2.14 0.05,-0.17 0.12,-0.32 0.22,-0.45 z m -20.46,2.86 c 0.05,-0.05 2.59,-2.86 6.1,-7.01 -5.57,1.11 -11.71,2.09 -18.41,2.88 -3.27,2.18 -6.33,3.88 -8.69,5.07 6.48,0.04 13.46,-0.19 20.93,-0.82 0.03,-0.04 0.04,-0.09 0.07,-0.12 z m -1.33,-16.83 c 1.24,-1.15 2.41,-2.24 3.44,-3.24 -14.89,6.37 -32.12,11.45 -51.75,13.95 17.43,-1.48 33.74,-5.53 48.31,-10.71 z m -9.07,7.69 c 1.06,-0.83 2.15,-1.7 3.24,-2.6 -7.66,2.44 -15.74,4.56 -24.16,6.14 6.45,-0.35 12.5,-0.88 18.14,-1.55 0.92,-0.63 1.85,-1.29 2.78,-1.99 z m -16.24,9.42 c 0.05,-0.02 3.17,-1.29 7.43,-3.68 -11.22,1.03 -23.88,1.5 -38.1,1.13 7.97,1.39 18.01,2.69 29.99,3.09 0.16,-0.23 0.39,-0.42 0.68,-0.54 z m -70.57,-9.83 c -3.42,-1.45 -6.85,-3.08 -10.24,-4.8 -0.69,0.2 -1.68,0.51 -2.65,0.87 4.25,1.5 8.56,2.83 12.89,3.93 z m -16.74,-1.9 c 0.56,0.12 1.13,0.25 1.7,0.37 -0.49,-0.18 -0.98,-0.36 -1.45,-0.54 -0.09,0.06 -0.16,0.12 -0.25,0.17 z"
   id="path3" />
		<path
   d="m 119.26,176.27 -1.1,2.74 c -4.4,-1.74 -8.69,-3.63 -12.81,-5.57 -1.16,0.33 -2.34,0.7 -3.52,1.14 -0.47,0.19 -0.97,0.39 -1.47,0.59 2.88,0.89 5.85,1.74 8.9,2.57 l -0.76,2.87 c -4.23,-1.13 -8.29,-2.33 -12.18,-3.57 -1.69,0.83 -3.28,1.68 -4.53,2.37 4.63,0.77 9.52,1.49 14.66,2.14 l -0.36,2.94 c -17.72,-2.23 -32.5,-5.29 -44.52,-8.51 l 0.76,-2.86 c 7.27,1.94 15.58,3.83 24.97,5.51 0.11,-0.13 0.24,-0.26 0.4,-0.35 0.16,-0.09 2.06,-1.2 4.62,-2.55 -1.97,-0.67 -3.9,-1.33 -5.77,-2.01 l 1.02,-2.78 c 2.73,0.98 5.57,1.94 8.52,2.89 1.57,-0.75 3.2,-1.48 4.7,-2.04 0.22,-0.08 0.44,-0.16 0.66,-0.24 -5.1,-2.51 -9.88,-5.08 -14.23,-7.55 -1.08,0.2 -2.2,0.41 -3.36,0.63 l -0.58,-2.92 C 71.17,154.59 63.34,148.85 63.15,148.7 c -0.19,-0.12 -0.31,-0.29 -0.41,-0.46 -3.44,0.52 -7.32,1.3 -14.85,2.86 l -0.6,-2.92 c 14.38,-2.99 15.63,-3.12 25.4,-4.13 l 0.3,2.97 c -2.47,0.26 -4.4,0.46 -6.14,0.66 3.36,2.35 10.88,7.45 20.9,13.19 1.61,-0.29 3.13,-0.55 4.52,-0.77 l 0.48,2.93 c -0.29,0.05 -0.59,0.1 -0.89,0.15 4.26,2.36 8.87,4.76 13.74,7.08 1.34,-0.35 2.63,-0.64 3.84,-0.87 l 0.56,2.92 c 3.02,1.37 6.11,2.7 9.26,3.96 z"
   id="path4" />
		<path
   d="m 87.57,170.94 -1.02,2.78 c -5.63,-2.01 -10.8,-4.06 -15.49,-6.06 -5.29,1.55 -9.88,3.26 -12.67,4.37 1.28,0.36 2.59,0.72 3.94,1.09 l -0.76,2.86 c -28.41,-7.59 -41.45,-15.99 -41.68,-16.14 -0.12,-0.07 -0.22,-0.17 -0.31,-0.28 -0.41,-0.13 -0.78,-0.44 -0.96,-0.89 -0.28,-0.76 0.1,-1.63 0.87,-1.92 0.67,-0.26 16.38,-6.21 27.79,-8.57 h 0.01 l 0.6,2.92 c -0.74,0.15 -1.51,0.33 -2.27,0.51 4.05,2.43 12.91,7.41 25.62,12.89 2.2,-0.63 4.51,-1.23 6.88,-1.73 1.77,-0.38 3.49,-0.73 5.16,-1.06 l 0.58,2.92 c -1.64,0.33 -3.36,0.68 -5.12,1.06 -1.01,0.22 -2.01,0.46 -3,0.7 3.68,1.51 7.63,3.04 11.83,4.55 z M 54.28,170.5 c 0.31,-0.14 5.47,-2.41 12.57,-4.68 -15.04,-6.72 -24.05,-12.4 -25.26,-13.19 -6.93,1.9 -14.23,4.43 -18.15,5.85 3.89,2.16 13.78,7.16 30.48,12.23 0.1,-0.08 0.22,-0.16 0.36,-0.21 z"
   id="path5" />
	</g>
</g>
<g
   id="g8"
   transform="translate(-18.528148,-46.86)">
	<path
   class="st0"
   d="M 82.51,71.63 C 80.35,57.47 75.24,53.15 60.29,53.15 c -13.17,0 -23.2,9.04 -23.2,21.04 0,9.63 7.08,16.32 26.74,25.17 23,10.42 31.65,19.27 31.65,32.83 0,19.27 -18.09,32.64 -43.65,32.64 -11.8,0 -19.46,-1.38 -32.44,-5.9 v -26.54 c 0,-0.59 0.39,-1.57 0.98,-1.57 h 3.54 c 0.98,0 1.77,2.95 2.36,7.27 0.79,7.67 2.16,11.6 4.92,13.37 6.29,4.13 14.94,6.88 21.82,6.88 14.55,0 25.17,-8.65 25.17,-20.45 0,-9.83 -7.27,-16.52 -27.33,-25.36 C 38.66,107.22 19.79,98.96 19.79,79.7 c 0,-18.48 18.48,-32.64 43.06,-32.64 8.45,0 19.66,1.77 26.35,4.13 v 25.17 c 0,0.79 -0.59,1.18 -1.97,1.18 h -2.56 c -1.38,0 -1.38,-0.39 -1.77,-3.34 z"
   id="path6" />
	<path
   class="st0"
   d="m 204.2,85.4 c -1.18,0 -1.38,-1.18 -1.77,-3.93 -2.36,-15.53 -15.53,-27.72 -29.88,-27.72 -22.02,0 -37.75,20.25 -37.75,48.76 0,29.29 16.91,51.71 39.13,51.71 10.42,0 21.04,-4.92 27.53,-12.98 1.97,-2.36 2.56,-2.95 3.54,-2.36 l 3.15,2.16 c 0.59,0.39 0.79,0.59 0.79,1.18 0,2.75 -12.19,22.61 -41.68,22.61 -30.08,0 -51.51,-23.79 -51.51,-57.02 0,-36.77 24.97,-60.95 62.92,-60.95 10.03,0 17.89,1.57 29.1,5.9 l 1.18,25.56 c 0.2,6.29 0.39,7.08 -1.18,7.08 z"
   id="path7" />
	<path
   class="st0"
   d="m 315.29,85.4 c -1.18,0 -1.38,-1.18 -1.77,-3.93 -2.36,-15.53 -15.53,-27.72 -29.88,-27.72 -22.02,0 -37.75,20.25 -37.75,48.76 0,29.29 16.91,51.71 39.13,51.71 10.42,0 21.04,-4.92 27.53,-12.98 1.97,-2.36 2.56,-2.95 3.54,-2.36 l 3.15,2.16 c 0.59,0.39 0.79,0.59 0.79,1.18 0,2.75 -12.19,22.61 -41.68,22.61 -30.08,0 -51.51,-23.79 -51.51,-57.02 0,-36.77 24.97,-60.95 62.92,-60.95 10.03,0 17.89,1.57 29.1,5.9 l 1.18,25.56 c 0.2,6.29 0.39,7.08 -1.18,7.08 z"
   id="path8" />
</g>
</svg>
