<?xml version="1.0" encoding="UTF-8" standalone="no"?>
<!-- Generator: Adobe Illustrator 24.1.2, SVG Export Plug-In . SVG Version: 6.00 Build 0)  -->

<svg
   version="1.1"
   id="Ebene_1"
   x="0px"
   y="0px"
   viewBox="0 0 1366 664"
   style="enable-background:new 0 0 1366 664;"
   xml:space="preserve"
   sodipodi:docname="SCC-Logo-edited.svg"
   inkscape:export-filename="scclogo.pdf"
   inkscape:export-xdpi="52.489063"
   inkscape:export-ydpi="52.489063"
   inkscape:version="1.3.1 (91b66b0783, 2023-11-16)"
   xmlns:inkscape="http://www.inkscape.org/namespaces/inkscape"
   xmlns:sodipodi="http://sodipodi.sourceforge.net/DTD/sodipodi-0.dtd"
   xmlns="http://www.w3.org/2000/svg"
   xmlns:svg="http://www.w3.org/2000/svg"><defs
   id="defs8" /><sodipodi:namedview
   id="namedview8"
   pagecolor="#ffffff"
   bordercolor="#000000"
   borderopacity="0.25"
   inkscape:showpageshadow="2"
   inkscape:pageopacity="0.0"
   inkscape:pagecheckerboard="0"
   inkscape:deskcolor="#d1d1d1"
   inkscape:zoom="1.0175695"
   inkscape:cx="683"
   inkscape:cy="332.16403"
   inkscape:window-width="1920"
   inkscape:window-height="1019"
   inkscape:window-x="0"
   inkscape:window-y="30"
   inkscape:window-maximized="1"
   inkscape:current-layer="g8" />
<style
   type="text/css"
   id="style1">
	.st0{fill:#C5C6C8;}
	.st1{fill:#FFFFFF;}
</style>
<g
   id="XMLID_1_">
	<g
   id="g5">
		<path
   class="st0"
   d="M1351,213.7c3.31,1.41,4.89,5.29,3.48,8.6c-0.44,0.93-28.52,66.55-67.61,148.54l-11.81-5.64    c13.58-28.43,25.78-54.92,35.97-77.36c-25.12,34.07-62.41,78.72-112.75,124.16c-2.87,5.77-11.15,22.39-22.61,44.25l-11.64-6.22    c2.91-5.51,5.6-10.67,8.02-15.43c-10.36,8.59-21.42,17.32-33.14,26.05l-7.8-10.49c13.27-9.92,25.7-19.83,37.2-29.53    c6.65-5.64,13.09-11.2,19.3-16.79c0.79-1.5,2.03-2.56,3.43-3.09c100.94-91.55,147.75-179.13,148.28-180.05    c0.62-1.23,1.58-2.16,2.73-2.73c0.13-0.44,0.26-0.79,0.31-0.84C1343.82,213.83,1347.65,212.25,1351,213.7z"
   id="path1" />
		<path
   class="st0"
   d="M1275.06,365.19l11.81,5.64c-10.18,21.42-21.16,43.99-32.57,66.82l-11.77-5.86    c-17.59,13.36-46.46,34.12-84.54,57.43c-5.95,10.8-12.25,22.13-18.73,33.45c-5.73,9.92-11.72,19.88-17.85,29.62l-11.15-6.92    c5.99-9.61,11.9-19.48,17.54-29.22c2.64-4.58,5.2-9.08,7.71-13.58c-21.86,12.65-46.19,25.79-72.68,38.57    c-12.6,16.88-26.05,34.69-36.72,48.13l-10.27-8.2c6.43-8.11,13.89-17.85,21.6-28.03c-2.95,1.36-5.95,2.69-8.99,4.01l-5.33-11.95    c10.62-4.72,20.98-9.52,30.99-14.32c7.05-9.34,13.66-18.29,19.26-25.96c-6.26,3.84-12.69,7.63-19.22,11.33l-6.44-11.37    c30.9-17.67,58.66-36.19,83.39-54.61l7.8,10.49c-11.64,8.68-23.94,17.41-36.89,26c-0.13,1.06-0.53,2.07-1.19,3    c-0.18,0.26-8.77,12.08-20.67,28.25c24.94-12.83,47.74-25.74,67.97-38.04c5.73-10.62,11.1-20.72,15.91-29.84l11.64,6.22    c-1.63,3.08-3.35,6.35-5.11,9.65c52.01-33.32,82.02-58.89,82.95-59.64c0.7-0.62,1.45-1.06,2.29-1.32    C1262.45,391.37,1268.89,378.06,1275.06,365.19z"
   id="path2" />
		<path
   class="st0"
   d="M1242.53,431.79l11.77,5.86c-4.15,8.24-8.33,16.53-12.56,24.81c-31.25,61-54.96,97.32-110.28,169.12    c-0.09,0.09-0.18,0.18-0.22,0.22c-0.13,0.18-0.35,0.35-0.49,0.53c-0.13,0.13-0.31,0.26-0.49,0.4c-0.17,0.13-0.35,0.26-0.48,0.35    c-0.22,0.13-0.4,0.26-0.57,0.35c-0.22,0.04-0.4,0.13-0.57,0.26c-0.22,0.04-0.44,0.13-0.66,0.18c-0.13,0.04-0.22,0.09-0.22,0.13    c-243.13,55.93-409.91,19.3-481.18,3.66l-20.54-4.23c-27.68-1.94-54.65-4.81-80.75-8.47c-58.27-2.55-111.42-7.23-159.6-13.35    l1.59-12.96c13.57,1.72,27.59,3.31,41.96,4.76c0.13-0.13,0.17-0.26,0.35-0.4c-11.33-2.73-22.43-5.55-33.28-8.51l3.35-12.65    c13.49,3.61,27.33,7.09,41.52,10.4c1.06-0.79,2.2-1.67,3.35-2.51c-1.9-0.75-3.75-1.45-5.64-2.29l4.85-12.08    c4.63,1.86,9.3,3.66,13.97,5.42c3.79-2.25,8.51-4.27,13-6c-12.61-6.74-25.08-13.84-37.2-20.94c-4.01,0.22-15.69,1.19-30.59,4.05    l-2.47-12.87c5.25-1.06,10.09-1.85,14.41-2.47c-17.06-10.49-33.28-21.11-48.35-31.25c-1.98,0.26-16.97,2.03-39.63,5.68    l-2.12-12.91c10.22-1.67,18.86-3,25.52-3.92c-39.98-27.77-68.67-50.64-76.91-57.25l-33.58,3.53l-1.32-13.09l36.27-3.83    c1.72-0.18,3.48,0.31,4.85,1.45c1.9,1.54,177.32,144.39,317.39,182.48c3.44,0.09,6.92,0.18,10.4,0.22    c186.49,3.13,332.47-47.43,440.32-108.91l6.44,11.37c-16.79,9.61-34.47,18.95-53.15,27.86c-0.22,1.19-0.66,2.38-1.59,3.35    c-0.13,0.13-5.16,5.33-13.09,13.13c12.6-4.98,24.86-10.14,36.8-15.38l5.33,11.95c-21.11,9.34-43.46,18.33-66.78,26.75    c-10.09,9.17-21.24,18.91-32.39,27.77c26.31-3.79,50.47-8.2,72.51-13.05c4.54-5.55,9.25-11.37,14.06-17.45l10.27,8.2    c-1.19,1.45-2.33,2.95-3.53,4.45c26.8-6.56,50.03-13.62,69.91-20.54c5.77-8.86,11.81-18.2,17.76-27.81l11.15,6.92    c-2.73,4.49-5.55,8.99-8.37,13.35c48.53-18.82,71.53-35.04,72.15-35.48c1.19-0.84,2.47-1.23,3.83-1.23    c14.55-22.88,27.02-45.18,40.99-72.46C1234.2,448.23,1238.39,439.99,1242.53,431.79z M1122.51,621.67    c20.54-26.75,36.67-48.53,50.47-68.54c-15.16,8.38-39.05,20.01-72.59,32c-13.58,20.63-25.65,37.86-32.66,47.73    C1085.53,629.65,1103.74,625.95,1122.51,621.67z M1050.71,633.97c0.22-0.35,12.69-17.41,29.27-41.92    c-20.76,6.65-44.65,13.27-71.71,19.26c-11.72,14.19-22.08,26.18-29.05,34.07c22.57-2.29,46.06-5.42,70.52-9.43    C1049.96,635.2,1050.27,634.54,1050.71,633.97z M960.53,646.57c0.22-0.22,11.41-12.61,26.89-30.9    c-24.55,4.89-51.61,9.21-81.15,12.69c-14.42,9.61-27.9,17.1-38.3,22.35c28.56,0.18,59.33-0.84,92.25-3.62    C960.35,646.93,960.4,646.71,960.53,646.57z M954.67,572.39c5.47-5.07,10.62-9.87,15.16-14.28    c-65.63,28.08-141.57,50.47-228.09,61.49C818.56,613.08,890.45,595.22,954.67,572.39z M914.69,606.29    c4.67-3.66,9.47-7.49,14.28-11.46c-33.76,10.76-69.37,20.1-106.48,27.07c28.43-1.55,55.1-3.88,79.95-6.84    C906.49,612.28,910.59,609.38,914.69,606.29z M843.11,647.81c0.22-0.09,13.97-5.69,32.75-16.22    c-49.45,4.54-105.25,6.61-167.93,4.98c35.13,6.12,79.38,11.85,132.19,13.62C840.82,649.17,841.83,648.34,843.11,647.81z     M532.07,604.48c-15.07-6.39-30.19-13.58-45.13-21.16c-3.04,0.88-7.41,2.25-11.68,3.84C493.98,593.77,512.98,599.63,532.07,604.48    z M458.28,596.11c2.47,0.53,4.98,1.1,7.49,1.63c-2.16-0.79-4.32-1.58-6.39-2.38C458.99,595.62,458.68,595.89,458.28,596.11z"
   id="path3" />
		<path
   class="st0"
   d="M443.74,575.39l-4.85,12.08c-19.4-7.67-38.3-16-56.46-24.55c-5.11,1.45-10.32,3.08-15.51,5.02    c-2.07,0.83-4.28,1.72-6.48,2.6c12.7,3.92,25.79,7.67,39.23,11.33l-3.35,12.65c-18.64-4.98-36.54-10.27-53.69-15.74    c-7.45,3.66-14.46,7.4-19.97,10.45c20.41,3.39,41.96,6.57,64.62,9.43l-1.59,12.96c-78.1-9.83-143.25-23.32-196.23-37.51    l3.35-12.61c32.04,8.55,68.67,16.88,110.06,24.29c0.49-0.57,1.06-1.15,1.76-1.54c0.7-0.4,9.08-5.29,20.36-11.24    c-8.68-2.96-17.19-5.86-25.43-8.86l4.5-12.25c12.03,4.32,24.55,8.55,37.55,12.74c6.92-3.31,14.11-6.53,20.72-8.99    c0.97-0.35,1.94-0.71,2.91-1.06c-22.48-11.06-43.55-22.39-62.72-33.28c-4.76,0.88-9.7,1.81-14.81,2.78l-2.56-12.87    c-53.38-31.38-87.89-56.68-88.73-57.34c-0.84-0.53-1.37-1.28-1.81-2.03c-15.16,2.29-32.27,5.73-65.45,12.61l-2.64-12.87    c63.38-13.18,68.89-13.75,111.95-18.21l1.32,13.09c-10.89,1.15-19.4,2.03-27.06,2.91c14.81,10.36,47.95,32.84,92.12,58.14    c7.1-1.28,13.8-2.43,19.92-3.39l2.12,12.91c-1.28,0.22-2.6,0.44-3.92,0.66c18.78,10.4,39.1,20.98,60.56,31.2    c5.91-1.54,11.59-2.82,16.92-3.83l2.47,12.87C416.23,563.97,429.85,569.84,443.74,575.39z"
   id="path4" />
		<path
   class="st0"
   d="M304.06,551.9l-4.5,12.25c-24.81-8.86-47.6-17.89-68.27-26.71c-23.32,6.83-43.55,14.37-55.84,19.26    c5.64,1.58,11.42,3.17,17.37,4.8l-3.35,12.61C64.24,540.66,6.77,503.64,5.75,502.97c-0.53-0.31-0.97-0.75-1.37-1.23    c-1.81-0.57-3.44-1.94-4.23-3.92c-1.24-3.35,0.44-7.18,3.84-8.46c2.95-1.15,72.2-27.37,122.49-37.77h0.04l2.64,12.87    c-3.26,0.66-6.66,1.45-10.01,2.25c17.85,10.71,56.9,32.66,112.92,56.81c9.7-2.78,19.88-5.42,30.32-7.63    c7.8-1.67,15.38-3.22,22.74-4.67l2.56,12.87c-7.23,1.45-14.81,3-22.57,4.67c-4.45,0.97-8.86,2.03-13.22,3.09    C268.14,538.5,285.55,545.24,304.06,551.9z M157.33,549.96c1.37-0.62,24.11-10.62,55.41-20.63    c-66.29-29.62-106-54.65-111.34-58.14c-30.54,8.37-62.72,19.53-80,25.79c17.15,9.52,60.74,31.56,134.34,53.91    C156.18,550.53,156.71,550.18,157.33,549.96z"
   id="path5" />
	</g>
</g>
<g
   id="g8">
	<path
   class="st1"
   d="M281.74,114.19c-9.53-62.39-32.06-81.46-97.92-81.46c-58.06,0-102.26,39.86-102.26,92.73   c0,42.46,31.2,71.92,117.86,110.92C300.8,282.31,338.93,321.3,338.93,381.1c0,84.93-79.72,143.85-192.38,143.85   c-52,0-85.79-6.06-142.99-26V381.96c0-2.6,1.73-6.93,4.33-6.93h15.6c4.33,0,7.8,13,10.4,32.06c3.47,33.8,9.53,51.13,21.67,58.93   c27.73,18.2,65.86,30.33,96.19,30.33c64.13,0,110.92-38.13,110.92-90.13c0-43.33-32.06-72.79-120.45-111.79   C88.49,271.04,5.3,234.64,5.3,149.72C5.3,68.26,86.76,5.87,195.08,5.87c37.26,0,86.66,7.8,116.12,18.2v110.92   c0,3.47-2.6,5.2-8.66,5.2h-11.27c-6.07,0-6.07-1.73-7.8-14.73L281.74,114.19z"
   id="path6"
   style="fill:#1a1a1a" />
	<path
   class="st1"
   d="M818.14,174.85c-5.2,0-6.06-5.2-7.8-17.33c-10.4-68.46-68.46-122.19-131.72-122.19   c-97.06,0-166.39,89.26-166.39,214.91c0,129.12,74.53,227.91,172.45,227.91c45.93,0,92.72-21.67,121.32-57.2   c8.67-10.4,11.26-13,15.6-10.4l13.86,9.53c2.6,1.73,3.47,2.6,3.47,5.2c0,12.13-53.73,99.66-183.71,99.66   c-132.59,0-227.04-104.86-227.04-251.31C428.18,111.59,538.24,5,705.49,5c44.2,0,78.86,6.93,128.25,26l5.2,112.65   c0.87,27.73,1.73,31.2-5.2,31.2H818.14z"
   id="path7"
   style="fill:#1a1a1a" />
	<path
   class="st1"
   d="M1307.76,174.85c-5.2,0-6.06-5.2-7.8-17.33c-10.4-68.46-68.46-122.19-131.72-122.19   c-97.06,0-166.38,89.26-166.38,214.91c0,129.12,74.53,227.91,172.45,227.91c45.93,0,92.72-21.67,121.32-57.2   c8.67-10.4,11.26-13,15.6-10.4l13.86,9.53c2.6,1.73,3.46,2.6,3.46,5.2c0,12.13-53.73,99.66-183.71,99.66   c-132.59,0-227.04-104.86-227.04-251.31C917.8,111.59,1027.85,5,1195.1,5c44.2,0,78.86,6.93,128.25,26l5.2,112.65   c0.87,27.73,1.73,31.2-5.2,31.2H1307.76z"
   id="path8"
   style="fill:#1a1a1a" />
</g>
</svg>
